<svg id="Layer_1" data-name="Layer 1" xmlns="http://www.w3.org/2000/svg" viewBox="0 0 60 60"><defs><style>.cls-1{fill:#6b6b6b;}</style></defs><path class="cls-1" d="M16.57,43.53l6.92,6.93,6.61-6.6,6.6,6.6,6.93-6.93L30.1,30ZM36.7,47.6l-5.17-5.17L30.1,41l-1.43,1.43L23.49,47.6l-4.06-4.07L30.1,32.86,40.77,43.53ZM16.86,29.89l4.57-4.57L14.5,18.39,3,29.89l11.5,11.5,6.93-6.93ZM45.5,18.39l-6.93,6.93,4.57,4.57-4.57,4.57,6.93,6.93L57,29.89Zm-1.87-1.92L36.7,9.54l-6.6,6.6-6.61-6.6-6.92,6.93L30.1,30ZM23.49,12.4l5.18,5.17L30.1,19l1.43-1.43L36.7,12.4l4.07,4.07L30.1,27.14,19.43,16.47Z"/></svg>