<svg id="Layer_1" data-name="Layer 1" xmlns="http://www.w3.org/2000/svg" viewBox="0 0 60 60"><defs><style>.cls-1{fill:#6b6b6b;}</style></defs><path class="cls-1" d="M39.34,48.72c.39-.44.78-.89,1.16-1.34l.27-.31c.47-.57.93-1.15,1.38-1.73a1.77,1.77,0,0,0,.16-.22c.39-.51.77-1,1.14-1.54l.31-.44c.34-.49.68-1,1-1.49l.22-.33q1.21-1.87,2.28-3.83l.19-.35c.29-.55.58-1.11.86-1.67.06-.11.11-.23.17-.34q1-2,1.83-4.11l.09-.23c.24-.62.47-1.25.7-1.87l.12-.35a59.65,59.65,0,0,0,2.63-10.51h0c.29-1.9.5-3.82.61-5.76,0,0,0-.08,0-.11.05-.9.08-1.81.08-2.71,0-.16,0-.32,0-.49,0-.89,0-1.79,0-2.69l-.14-3L30.18,21.05,5.61,3h0L5.49,6h0c0,.57,0,1.13,0,1.69,0,.21,0,.43,0,.65s0,.68,0,1,0,.55,0,.83,0,.52,0,.78,0,.66,0,1l0,.49A59.67,59.67,0,0,0,8.44,27.26h0c.47,1.43,1,2.85,1.58,4.24l.06.14c.26.63.54,1.26.83,1.88,0,.08.07.15.1.23a59.48,59.48,0,0,0,3.12,5.84l.19.29c.32.53.65,1,1,1.56l.22.33c.38.58.78,1.15,1.18,1.71l0,.06c.44.6.88,1.19,1.34,1.78l.17.2q.57.73,1.17,1.44c.12.15.24.29.37.43.35.42.71.82,1.07,1.23.13.13.25.28.38.41.45.49.9,1,1.37,1.44l.1.11c.51.51,1,1,1.55,1.5l.41.38,1.18,1.06.54.46c.38.33.77.65,1.17,1l.51.41c.56.45,1.12.88,1.7,1.31l.44.32h0c.59-.44,1.17-.88,1.74-1.34.18-.13.35-.27.52-.41l1.22-1,.51-.44c.47-.41.92-.82,1.37-1.24l.25-.23q.8-.75,1.56-1.53c.13-.12.25-.25.37-.38.39-.4.78-.81,1.15-1.23C39.06,49,39.2,48.87,39.34,48.72Zm8.34-18.46L34.4,32.42l16.25-12A56.57,56.57,0,0,1,47.68,30.26ZM25.6,32.42,12.47,30.29a56.47,56.47,0,0,1-3-9.8Z"/></svg>