<svg id="Layer_1" data-name="Layer 1" xmlns="http://www.w3.org/2000/svg" viewBox="0 0 60 60"><defs><style>.cls-1{fill:#6b6b6b;}</style></defs><path class="cls-1" d="M53.94,25.61,30,1.67,6.06,25.61a10.44,10.44,0,0,0,0,14.77L19.77,54.09a14.47,14.47,0,0,0,20.46,0L53.94,40.38A10.44,10.44,0,0,0,53.94,25.61ZM39.07,49.08l-.21.2a12.52,12.52,0,0,1-17.72,0l-.21-.2a14.28,14.28,0,0,1,0-20.2L30,19.81l9.07,9.07A14.28,14.28,0,0,1,39.07,49.08ZM30,29.53,25.53,34a7,7,0,0,0,0,10l.1.1a6.19,6.19,0,0,0,8.74,0l.1-.1a7,7,0,0,0,0-10Z"/></svg>