<svg id="Layer_1" data-name="Layer 1" xmlns="http://www.w3.org/2000/svg" viewBox="0 0 60 60"><defs><style>.cls-1{fill:#6b6b6b;}</style></defs><path class="cls-1" d="M11.2,30l8.86-8.87L16,17,3,30,16,43l4.09-4.1ZM5,30,16,19l2.14,2.14L10.22,29l-1,1,1,1,7.89,7.89L16,41Z"/><polygon class="cls-1" points="44.49 17.5 40.4 21.59 48.8 30 40.4 38.41 44.49 42.51 57 30 44.49 17.5"/><path class="cls-1" d="M41.74,30,36,24.28l-1,1L39.79,30l-6.7,6.69-2.15-2.14L34.51,31l1-1-1-1L32.9,27.4l-1,1L33.54,30,30,33.57,26.4,30,41.74,14.66l-4.1-4.1L30,18.23,22.3,10.56l-4.1,4.1,7.67,7.67L18.2,30l7.67,7.67h0l1,1h0L29,40.79h0l1,1h0l7.67,7.67,4.1-4.1-7.67-7.67ZM20.15,14.66l2.15-2.15L29,19.21l-2.15,2.14Z"/><polygon class="cls-1" points="22.3 47.49 20.15 45.34 24.89 40.6 23.92 39.62 18.2 45.34 22.3 49.44 28.02 43.72 27.04 42.74 22.3 47.49"/></svg>