<svg id="Layer_1" data-name="Layer 1" xmlns="http://www.w3.org/2000/svg" viewBox="0 0 60 60"><defs><style>.cls-1{fill:#6b6b6b;}</style></defs><path class="cls-1" d="M6.83,43.4a23.79,23.79,0,0,0,1.59,1.92H51.58a23.79,23.79,0,0,0,1.59-1.92Z"/><path class="cls-1" d="M12.43,48.79c.56.39,1.14.76,1.73,1.11H45.84c.59-.35,1.17-.72,1.73-1.11Z"/><path class="cls-1" d="M3,32.6a18.35,18.35,0,0,0,.45,3.56h53.1A18.35,18.35,0,0,0,57,32.6Z"/><path class="cls-1" d="M57,31.58C56.67,19.67,44.71,10.1,30,10.1S3.33,19.67,3,31.58Z"/><path class="cls-1" d="M4,38a18.4,18.4,0,0,0,1.18,2.74H54.84A18.4,18.4,0,0,0,56,38Z"/></svg>