<svg id="Layer_1" data-name="Layer 1" xmlns="http://www.w3.org/2000/svg" viewBox="0 0 60 60"><defs><style>.cls-1{fill:#6b6b6b;}</style></defs><path class="cls-1" d="M53.38,29.16V16.5l-11-6.33-.11.07L41,9.45V9.33L30,3,19,9.33v.15l-1.33.77-.13-.08-11,6.33V29.16l.13.07v1.54l-.13.07V43.5l11,6.33.13-.08,1.33.77v.15L30,57l11-6.33v-.12l1.35-.79.11.07,11-6.33V30.84l-.11-.06V29.22ZM13.73,30l8.13-4.7V15.91l7.43,4.29.33.19h.76l7.76-4.48V25.3L46.27,30l-8.13,4.7v9.39L30.71,39.8l-.33-.19h-.76l-7.76,4.48V34.7Zm36.83-2.48-1.47.85L41,23.67V14.28l1.46-.85,8.14,4.7ZM9.44,18.13l8.14-4.7,1.46.85v9.39l-8.13,4.7-1.47-.85ZM21.86,49V47.35h0L30,42.65l8.14,4.7h0V49L30,53.74Z"/></svg>