<svg id="Layer_1" data-name="Layer 1" xmlns="http://www.w3.org/2000/svg" viewBox="0 0 60 60"><defs><style>.cls-1{fill:#6b6b6b;}</style></defs><path class="cls-1" d="M56.55,25.06A27,27,0,1,0,25.06,56.55l2.41.45L27,54.58a23.65,23.65,0,0,1,3-16.5,23.46,23.46,0,0,1,3.37,12.17,23.26,23.26,0,0,1-.4,4.33L32.53,57,35,56.55A27,27,0,0,0,57,30,27.26,27.26,0,0,0,56.55,25.06ZM30,6.38a23.6,23.6,0,0,1,22.49,16.4c-.74-.06-1.49-.1-2.24-.1A27.33,27.33,0,0,0,30,31.55,27.31,27.31,0,0,0,9.75,22.68c-.75,0-1.5,0-2.24.1A23.6,23.6,0,0,1,30,6.38ZM23.25,50.25c0,.81,0,1.62.1,2.43A23.62,23.62,0,0,1,6.38,30a22.32,22.32,0,0,1,.15-2.58,23,23,0,0,1,3.22-.22,22.86,22.86,0,0,1,17.81,8.42A26.76,26.76,0,0,0,23.25,50.25Zm13.4,2.43c.07-.81.1-1.62.1-2.43a26.77,26.77,0,0,0-4.3-14.63,23.11,23.11,0,0,1,21-8.2A22.32,22.32,0,0,1,53.62,30,23.62,23.62,0,0,1,36.65,52.68Z"/></svg>