<svg id="Layer_1" data-name="Layer 1" xmlns="http://www.w3.org/2000/svg" viewBox="0 0 60 60"><defs><style>.cls-1{fill:#6b6b6b;}</style></defs><path class="cls-1" d="M43.82,18.45A22.94,22.94,0,0,1,57,18.74V5.24A23,23,0,0,0,43.5,5v13.5l.22-.05a79.71,79.71,0,0,0-13.4,5.08v13.5A80.76,80.76,0,0,1,43.5,32V45.53a23,23,0,0,1,13.5.21V32.24A23,23,0,0,0,43.71,32l.11,0ZM16.5,28.88A83.08,83.08,0,0,0,30,23.7V10.2a83.08,83.08,0,0,1-13.5,5.18ZM30,50.7V37.2a83.08,83.08,0,0,1-13.5,5.18v13.5A83.08,83.08,0,0,0,30,50.7Zm-27-22v13.5a23.1,23.1,0,0,0,13.5.22V28.88A23.1,23.1,0,0,1,3,28.66Z"/></svg>