<svg id="Layer_1" data-name="Layer 1" xmlns="http://www.w3.org/2000/svg" viewBox="0 0 60 60"><defs><style>.cls-1{fill:#6b6b6b;}</style></defs><path class="cls-1" d="M56.75,50.79a27.28,27.28,0,0,0-18-21.08A28.12,28.12,0,0,0,39,26.53a27,27,0,0,0-7.75-19L30,6.33,28.85,7.54a27,27,0,0,0-7.75,19,27.9,27.9,0,0,0,.18,3.16,27.23,27.23,0,0,0-18,21.08L3,52.23l1.43.41a27.12,27.12,0,0,0,25.61-6,26.84,26.84,0,0,0,18.19,7,27.4,27.4,0,0,0,7.33-1L57,52.26ZM30,41.91a23.42,23.42,0,0,1-5-9.83,24.17,24.17,0,0,1,10,0A23.48,23.48,0,0,1,30,41.91Zm0-30.76a23.62,23.62,0,0,1,5.64,15.38c0,.77,0,1.53-.11,2.29a27.3,27.3,0,0,0-11,0c-.07-.76-.11-1.52-.11-2.28A23.66,23.66,0,0,1,30,11.15ZM6.82,49.83A24,24,0,0,1,21.87,33,26.81,26.81,0,0,0,27.72,44.3a23.62,23.62,0,0,1-15.88,6.06A24,24,0,0,1,6.82,49.83Zm41.41.53A23.64,23.64,0,0,1,32.35,44.3,26.87,26.87,0,0,0,38.2,33a24,24,0,0,1,15,16.83A23.44,23.44,0,0,1,48.23,50.36Z"/></svg>